<svg xmlns="http://www.w3.org/2000/svg" viewBox="0 0 64 64">
	<path d="M51.2,56.48H41.6a5.29,5.29,0,0,1-5.28-5.28V38.4a1.12,1.12,0,0,0-1.12-1.12H28.8a1.12,1.12,0,0,0-1.12,1.12V51.2a5.29,5.29,0,0,1-5.28,5.28H12.8A5.29,5.29,0,0,1,7.52,51.2V27.61A2.08,2.08,0,0,1,8.3,26L30.67,8a2.08,2.08,0,0,1,2.66,0l1.46,1.21L55.7,26a2.08,2.08,0,0,1,.78,1.62V51.2a5.29,5.29,0,0,1-5.28,5.28ZM28.8,33.12h6.4a5.29,5.29,0,0,1,5.28,5.28V51.2a1.12,1.12,0,0,0,1.12,1.12h9.6a1.12,1.12,0,0,0,1.12-1.12V28.61L32,12.3l-.14.12L11.68,28.61V51.2a1.12,1.12,0,0,0,1.12,1.12h9.6a1.12,1.12,0,0,0,1.12-1.12V38.4A5.29,5.29,0,0,1,28.8,33.12Z" fill="#212121" />
</svg>
