<svg enable-background="new 0 0 24 24" height="512" viewBox="0 0 24 24" width="512" xmlns="http://www.w3.org/2000/svg" stroke-width="10"><path d="m17.5 24c-3.584 0-6.5-2.916-6.5-6.5s2.916-6.5 6.5-6.5 6.5 2.916 6.5 6.5-2.916 6.5-6.5 6.5zm0-12c-3.033 0-5.5 2.467-5.5 5.5s2.467 5.5 5.5 5.5 5.5-2.467 5.5-5.5-2.467-5.5-5.5-5.5z"  stroke-width="10"/><path d="m20 20.5c-.109 0-.22-.036-.312-.109l-2.5-2c-.119-.096-.188-.239-.188-.391v-3.5c0-.276.224-.5.5-.5s.5.224.5.5v3.26l2.312 1.85c.215.173.25.487.078.703-.098.123-.244.187-.39.187z"  stroke-width="10"/><path d="m9.5 21h-8c-.827 0-1.5-.673-1.5-1.5v-18c0-.827.673-1.5 1.5-1.5h18c.827 0 1.5.673 1.5 1.5v8c0 .276-.224.5-.5.5s-.5-.224-.5-.5v-8c0-.276-.224-.5-.5-.5h-18c-.276 0-.5.224-.5.5v18c0 .276.224.5.5.5h8c.276 0 .5.224.5.5s-.224.5-.5.5z"  stroke-width="10"/><path d="m14.5 9c-.106 0-.212-.034-.3-.1l-3.7-2.775-3.7 2.775c-.15.115-.354.132-.523.047-.17-.085-.277-.258-.277-.447v-8c0-.276.224-.5.5-.5h8c.276 0 .5.224.5.5v8c0 .189-.107.362-.276.447-.071.035-.148.053-.224.053zm-4-4c.105 0 .211.033.3.1l3.2 2.4v-6.5h-7v6.5l3.2-2.4c.089-.067.195-.1.3-.1z"  stroke-width="10"/></svg>